<svg id="svg" version="1.1" xmlns="http://www.w3.org/2000/svg" xmlns:xlink="http://www.w3.org/1999/xlink" width="400" height="400" viewBox="0, 0, 400,400"><g id="svgg"><path id="path0" d="M49.219 24.609 L 49.219 49.219 24.609 49.219 L 0.000 49.219 0.000 84.766 L 0.000 120.313 24.609 120.313 L 49.219 120.313 49.219 200.000 L 49.219 279.688 24.609 279.688 L 0.000 279.688 0.000 315.234 L 0.000 350.781 24.609 350.781 L 49.219 350.781 49.219 375.391 L 49.219 400.000 84.766 400.000 L 120.313 400.000 120.313 375.391 L 120.313 350.781 200.000 350.781 L 279.688 350.781 279.688 375.391 L 279.688 400.000 315.234 400.000 L 350.781 400.000 350.781 375.391 L 350.781 350.781 375.391 350.781 L 400.000 350.781 400.000 315.234 L 400.000 279.688 375.391 279.688 L 350.781 279.688 350.781 200.000 L 350.781 120.313 375.391 120.313 L 400.000 120.313 400.000 84.766 L 400.000 49.219 375.391 49.219 L 350.781 49.219 350.781 24.609 L 350.781 0.000 315.234 0.000 L 279.688 0.000 279.688 24.609 L 279.688 49.219 200.000 49.219 L 120.313 49.219 120.313 24.609 L 120.313 0.000 84.766 0.000 L 49.219 0.000 49.219 24.609 M96.094 151.953 L 96.094 279.688 84.766 279.688 L 73.438 279.688 73.438 151.953 L 73.438 24.219 84.766 24.219 L 96.094 24.219 96.094 151.953 M326.563 36.719 L 326.563 49.219 315.234 49.219 L 303.906 49.219 303.906 36.719 L 303.906 24.219 315.234 24.219 L 326.563 24.219 326.563 36.719 M49.219 84.766 L 49.219 96.094 36.719 96.094 L 24.219 96.094 24.219 84.766 L 24.219 73.438 36.719 73.438 L 49.219 73.438 49.219 84.766 M375.781 84.766 L 375.781 96.094 248.047 96.094 L 120.313 96.094 120.313 84.766 L 120.313 73.438 248.047 73.438 L 375.781 73.438 375.781 84.766 M279.688 200.000 L 279.688 279.688 200.000 279.688 L 120.313 279.688 120.313 200.000 L 120.313 120.313 200.000 120.313 L 279.688 120.313 279.688 200.000 M326.563 248.047 L 326.563 375.781 315.234 375.781 L 303.906 375.781 303.906 248.047 L 303.906 120.313 315.234 120.313 L 326.563 120.313 326.563 248.047 M279.688 315.234 L 279.688 326.563 151.953 326.563 L 24.219 326.563 24.219 315.234 L 24.219 303.906 151.953 303.906 L 279.688 303.906 279.688 315.234 M375.781 315.234 L 375.781 326.563 363.281 326.563 L 350.781 326.563 350.781 315.234 L 350.781 303.906 363.281 303.906 L 375.781 303.906 375.781 315.234 M96.094 363.281 L 96.094 375.781 84.766 375.781 L 73.438 375.781 73.438 363.281 L 73.438 350.781 84.766 350.781 L 96.094 350.781 96.094 363.281 " stroke="none" fill="#000000" fill-rule="evenodd"></path></g></svg>